M48
; DRILL file {KiCad 9.0.7} date 2026-02-16T21:59:17+0100
; FORMAT={-:-/ absolute / metric / decimal}
; #@! TF.CreationDate,2026-02-16T21:59:17+01:00
; #@! TF.GenerationSoftware,Kicad,Pcbnew,9.0.7
; #@! TF.FileFunction,Plated,1,2,PTH
FMAT,2
METRIC
; #@! TA.AperFunction,Plated,PTH,ViaDrill
T1C0.300
; #@! TA.AperFunction,Plated,PTH,ComponentDrill
T2C0.700
; #@! TA.AperFunction,Plated,PTH,ComponentDrill
T3C0.800
; #@! TA.AperFunction,Plated,PTH,ComponentDrill
T4C0.900
; #@! TA.AperFunction,Plated,PTH,ComponentDrill
T5C1.000
; #@! TA.AperFunction,Plated,PTH,ComponentDrill
T6C1.100
; #@! TA.AperFunction,Plated,PTH,ComponentDrill
T7C1.300
; #@! TA.AperFunction,Plated,PTH,ViaDrill
T8C3.000
%
G90
G05
T1
X84.455Y-73.787
X84.709Y-75.184
X85.09Y-71.247
X85.598Y-86.36
X88.138Y-71.882
X88.201Y-90.233
X88.773Y-72.644
X88.773Y-87.884
X89.916Y-69.342
X90.043Y-91.948
X91.948Y-77.851
X95.504Y-84.074
X103.188Y-63.182
X133.985Y-52.705
T2
X86.106Y-64.135
X86.233Y-59.436
X93.726Y-64.135
X93.853Y-59.436
X109.474Y-43.81
X116.459Y-70.358
X116.459Y-77.978
X117.094Y-43.81
X119.253Y-70.358
X119.253Y-77.978
X125.476Y-27.305
X125.476Y-34.925
T3
X84.916Y-46.228
X84.936Y-50.546
X85.17Y-54.737
X89.816Y-50.546
X89.916Y-46.228
X90.17Y-54.737
X97.028Y-31.877
X97.028Y-34.417
X97.028Y-36.957
X97.028Y-39.497
X97.028Y-42.037
X97.028Y-44.577
X97.028Y-47.117
X97.028Y-49.657
X97.028Y-52.197
X97.028Y-54.737
X97.028Y-57.277
X97.028Y-59.817
X97.028Y-62.357
X97.028Y-64.897
X104.648Y-31.877
X104.648Y-34.417
X104.648Y-36.957
X104.648Y-39.497
X104.648Y-42.037
X104.648Y-44.577
X104.648Y-47.117
X104.648Y-49.657
X104.648Y-52.197
X104.648Y-54.737
X104.648Y-57.277
X104.648Y-59.817
X104.648Y-62.357
X104.648Y-64.897
X109.093Y-52.959
X109.173Y-56.007
X109.26Y-49.657
X112.644Y-34.036
X112.644Y-36.576
X112.644Y-39.116
X113.411Y-67.818
X113.411Y-77.978
X113.411Y-81.026
X113.411Y-86.026
X114.173Y-56.007
X114.26Y-49.657
X119.253Y-52.959
X120.264Y-34.036
X120.264Y-36.576
X120.264Y-39.116
X124.206Y-86.36
X134.366Y-86.36
T4
X81.026Y-59.436
X81.026Y-64.135
X83.566Y-59.436
X83.566Y-64.135
X136.144Y-75.057
X138.684Y-75.057
T5
X75.311Y-71.247
X76.073Y-26.797
X76.073Y-29.337
X76.073Y-31.877
X76.073Y-34.417
X76.073Y-39.37
X76.073Y-41.91
X76.073Y-44.45
X76.073Y-46.99
X77.851Y-71.247
X80.391Y-71.247
X91.313Y-26.035
X93.853Y-26.035
X96.393Y-26.035
X98.933Y-26.035
X100.965Y-82.804
X100.965Y-85.344
X100.965Y-87.884
X101.473Y-26.035
X103.505Y-82.804
X103.505Y-85.344
X103.505Y-87.884
X104.013Y-26.035
X106.553Y-26.035
X109.093Y-26.035
X109.347Y-34.29
X109.347Y-36.83
X109.347Y-39.37
X137.795Y-54.737
X137.795Y-57.277
X137.795Y-59.817
X137.795Y-62.357
X137.795Y-64.897
X137.795Y-67.437
X137.922Y-83.82
X137.922Y-86.36
T6
X124.818Y-72.898
X124.818Y-77.398
X131.318Y-72.898
X131.318Y-77.398
T7
X133.604Y-27.432
X133.604Y-32.512
X133.604Y-37.592
X133.604Y-42.672
T8
X77.47Y-90.551
X84.074Y-28.321
X120.65Y-27.94
X135.128Y-90.551
M30
