%TF.GenerationSoftware,KiCad,Pcbnew,9.0.7*%
%TF.CreationDate,2026-02-16T21:59:20+01:00*%
%TF.ProjectId,anemometre,616e656d-6f6d-4657-9472-652e6b696361,rev?*%
%TF.SameCoordinates,Original*%
%TF.FileFunction,Paste,Top*%
%TF.FilePolarity,Positive*%
%FSLAX46Y46*%
G04 Gerber Fmt 4.6, Leading zero omitted, Abs format (unit mm)*
G04 Created by KiCad (PCBNEW 9.0.7) date 2026-02-16 21:59:20*
%MOMM*%
%LPD*%
G01*
G04 APERTURE LIST*
G04 Aperture macros list*
%AMRoundRect*
0 Rectangle with rounded corners*
0 $1 Rounding radius*
0 $2 $3 $4 $5 $6 $7 $8 $9 X,Y pos of 4 corners*
0 Add a 4 corners polygon primitive as box body*
4,1,4,$2,$3,$4,$5,$6,$7,$8,$9,$2,$3,0*
0 Add four circle primitives for the rounded corners*
1,1,$1+$1,$2,$3*
1,1,$1+$1,$4,$5*
1,1,$1+$1,$6,$7*
1,1,$1+$1,$8,$9*
0 Add four rect primitives between the rounded corners*
20,1,$1+$1,$2,$3,$4,$5,0*
20,1,$1+$1,$4,$5,$6,$7,0*
20,1,$1+$1,$6,$7,$8,$9,0*
20,1,$1+$1,$8,$9,$2,$3,0*%
G04 Aperture macros list end*
%ADD10RoundRect,0.250000X0.337500X0.475000X-0.337500X0.475000X-0.337500X-0.475000X0.337500X-0.475000X0*%
%ADD11RoundRect,0.100000X-0.850000X-0.100000X0.850000X-0.100000X0.850000X0.100000X-0.850000X0.100000X0*%
%ADD12R,2.500000X0.500000*%
%ADD13R,2.500000X2.000000*%
%ADD14RoundRect,0.250000X-0.350000X-0.450000X0.350000X-0.450000X0.350000X0.450000X-0.350000X0.450000X0*%
%ADD15RoundRect,0.250000X-0.337500X-0.475000X0.337500X-0.475000X0.337500X0.475000X-0.337500X0.475000X0*%
%ADD16RoundRect,0.218750X-0.218750X-0.381250X0.218750X-0.381250X0.218750X0.381250X-0.218750X0.381250X0*%
G04 APERTURE END LIST*
D10*
%TO.C,C8*%
X76856500Y-74803000D03*
X74781500Y-74803000D03*
%TD*%
D11*
%TO.C,U3*%
X86726000Y-71299000D03*
X86726000Y-71949000D03*
X86726000Y-72599000D03*
X86726000Y-73249000D03*
X86726000Y-73899000D03*
X86726000Y-74549000D03*
X86726000Y-75199000D03*
X86726000Y-75849000D03*
X86726000Y-76499000D03*
X86726000Y-77149000D03*
X86726000Y-77799000D03*
X86726000Y-78449000D03*
X86726000Y-79099000D03*
X86726000Y-79749000D03*
X93726000Y-79749000D03*
X93726000Y-79099000D03*
X93726000Y-78449000D03*
X93726000Y-77799000D03*
X93726000Y-77149000D03*
X93726000Y-76499000D03*
X93726000Y-75849000D03*
X93726000Y-75199000D03*
X93726000Y-74549000D03*
X93726000Y-73899000D03*
X93726000Y-73249000D03*
X93726000Y-72599000D03*
X93726000Y-71949000D03*
X93726000Y-71299000D03*
%TD*%
D12*
%TO.C,J8*%
X81280000Y-80651000D03*
X81280000Y-81451000D03*
X81280000Y-82251000D03*
X81280000Y-83051000D03*
X81280000Y-83851000D03*
D13*
X81280000Y-77851000D03*
X75780000Y-77851000D03*
X81280000Y-86651000D03*
X75780000Y-86651000D03*
%TD*%
D10*
%TO.C,C7*%
X94107000Y-82931000D03*
X92032000Y-82931000D03*
%TD*%
D14*
%TO.C,R8*%
X92066000Y-90297000D03*
X94066000Y-90297000D03*
%TD*%
D15*
%TO.C,C6*%
X92032000Y-85217000D03*
X94107000Y-85217000D03*
%TD*%
D16*
%TO.C,FB1*%
X79282000Y-74803000D03*
X81407000Y-74803000D03*
%TD*%
D14*
%TO.C,R7*%
X92091000Y-87884000D03*
X94091000Y-87884000D03*
%TD*%
M02*
