M48
; DRILL file {KiCad 9.0.7} date 2026-09-14T00:32:03+0200
; FORMAT={-:-/ absolute / metric / decimal}
; #@! TF.CreationDate,2026-09-14T00:32:03+02:00
; #@! TF.GenerationSoftware,Kicad,Pcbnew,9.0.7
; #@! TF.FileFunction,Plated,1,2,PTH
FMAT,2
METRIC
; #@! TA.AperFunction,Plated,PTH,ViaDrill
T1C0.300
; #@! TA.AperFunction,Plated,PTH,ComponentDrill
T2C0.700
; #@! TA.AperFunction,Plated,PTH,ComponentDrill
T3C0.800
; #@! TA.AperFunction,Plated,PTH,ComponentDrill
T4C0.900
; #@! TA.AperFunction,Plated,PTH,ComponentDrill
T5C1.000
; #@! TA.AperFunction,Plated,PTH,ComponentDrill
T6C1.100
; #@! TA.AperFunction,Plated,PTH,ComponentDrill
T7C1.300
; #@! TA.AperFunction,Plated,PTH,ViaDrill
T8C3.000
%
G90
G05
T1
X84.455Y-73.787
X84.709Y-75.184
X85.09Y-71.247
X85.598Y-86.36
X88.138Y-71.882
X88.201Y-90.233
X88.773Y-72.644
X88.773Y-87.884
X89.916Y-69.342
X90.043Y-91.948
X91.948Y-77.851
X95.504Y-84.074
X103.188Y-63.182
X107.0Y-54.737
X107.594Y-39.0
X115.5Y-57.277
X118.0Y-59.817
T2
X86.106Y-64.135
X86.233Y-59.436
X93.726Y-64.135
X93.853Y-59.436
X116.459Y-70.358
X116.459Y-77.978
X119.253Y-70.358
X119.253Y-77.978
X127.38Y-44.5
X134.46Y-60.19
X134.46Y-67.81
X135.0Y-44.5
X137.0Y-55.0
X137.0Y-62.62
X139.5Y-60.0
X139.5Y-67.62
X140.0Y-24.5
X140.0Y-32.12
T3
X84.916Y-46.228
X84.936Y-50.546
X85.17Y-54.737
X89.816Y-50.546
X89.916Y-46.228
X90.17Y-54.737
X97.028Y-31.877
X97.028Y-34.417
X97.028Y-36.957
X97.028Y-39.497
X97.028Y-42.037
X97.028Y-44.577
X97.028Y-47.117
X97.028Y-49.657
X97.028Y-52.197
X97.028Y-54.737
X97.028Y-57.277
X97.028Y-59.817
X97.028Y-62.357
X97.028Y-64.897
X104.648Y-31.877
X104.648Y-34.417
X104.648Y-36.957
X104.648Y-39.497
X104.648Y-42.037
X104.648Y-44.577
X104.648Y-47.117
X104.648Y-49.657
X104.648Y-52.197
X104.648Y-54.737
X104.648Y-57.277
X104.648Y-59.817
X104.648Y-62.357
X104.648Y-64.897
X109.0Y-49.657
X109.0Y-56.0
X109.093Y-52.959
X113.411Y-67.818
X113.411Y-77.978
X113.411Y-81.026
X113.411Y-86.026
X114.0Y-49.657
X114.0Y-56.0
X119.253Y-52.959
X128.88Y-36.5
X128.88Y-39.04
X128.88Y-41.58
X131.5Y-60.5
X131.5Y-65.5
X136.5Y-36.5
X136.5Y-39.04
X136.5Y-41.58
X137.284Y-87.0
X147.444Y-87.0
T4
X81.026Y-59.436
X81.026Y-64.135
X83.566Y-59.436
X83.566Y-64.135
X148.96Y-77.0
X151.5Y-77.0
T5
X75.311Y-71.247
X76.073Y-26.797
X76.073Y-29.337
X76.073Y-31.877
X76.073Y-34.417
X76.073Y-39.37
X76.073Y-41.91
X76.073Y-44.45
X76.073Y-46.99
X77.851Y-71.247
X80.391Y-71.247
X91.313Y-26.035
X93.853Y-26.035
X96.393Y-26.035
X98.933Y-26.035
X100.965Y-82.804
X100.965Y-85.344
X100.965Y-87.884
X101.473Y-26.035
X103.505Y-82.804
X103.505Y-85.344
X103.505Y-87.884
X104.013Y-26.035
X106.553Y-26.035
X109.093Y-26.035
X112.8Y-26.0
X115.34Y-26.0
X117.88Y-26.0
X120.42Y-26.0
X122.96Y-26.0
X125.5Y-26.0
X125.5Y-36.5
X125.5Y-39.04
X125.5Y-41.58
X125.5Y-50.0
X125.5Y-52.54
X125.5Y-55.08
X131.5Y-50.0
X131.5Y-52.54
X131.5Y-55.08
X151.0Y-84.46
X151.0Y-87.0
T6
X133.0Y-75.5
X133.0Y-80.0
X139.5Y-75.5
X139.5Y-80.0
T7
X147.5Y-27.42
X147.5Y-32.5
X147.5Y-37.58
X147.5Y-42.66
X147.5Y-52.34
X147.5Y-57.42
X147.5Y-62.5
X147.5Y-67.58
T8
X78.0Y-92.0
X84.074Y-27.5
X132.5Y-27.5
X151.0Y-92.0
M30
